<svg width="14" height="14" viewBox="0 0 14 14" fill="none" xmlns="http://www.w3.org/2000/svg">
<path d="M2.38996 0.410051C1.84322 -0.136684 0.956786 -0.136684 0.410051 0.410051C-0.136684 0.956786 -0.136684 1.84322 0.410051 2.38996L5.02012 7.00002L0.410051 11.6101C-0.136684 12.1568 -0.136684 13.0432 0.410051 13.59C0.956786 14.1367 1.84322 14.1367 2.38996 13.59L7.00002 8.97991L11.6101 13.59C12.1568 14.1367 13.0432 14.1367 13.59 13.59C14.1367 13.0432 14.1367 12.1568 13.59 11.6101L8.97991 7.00002L13.59 2.38996C14.1367 1.84322 14.1367 0.956786 13.59 0.410051C13.0432 -0.136684 12.1568 -0.136684 11.6101 0.410051L7.00002 5.02012L2.38996 0.410051Z" fill="#5E6363"/>
</svg>
