<svg width="22" height="21" viewBox="0 0 22 21" fill="none" xmlns="http://www.w3.org/2000/svg">
<path d="M20.5703 0.695312C20.2969 0.5 19.9062 0.460938 19.5938 0.65625L1.46875 10.9688C1.15625 11.125 0.960938 11.4766 1 11.8281C1 12.1797 1.23438 12.4922 1.54688 12.6484L7.5625 15.1484V19.5625C7.5625 19.9141 7.71875 20.2266 8.03125 20.4219C8.1875 20.4609 8.34375 20.5 8.46094 20.5C8.61719 20.5 8.8125 20.4609 8.96875 20.3828L13.3047 17.5703L17.1328 19.2109C17.25 19.25 17.3672 19.2891 17.5234 19.2891C17.6797 19.2891 17.8359 19.2109 17.9531 19.1328C18.2266 19.0156 18.3828 18.7422 18.4219 18.4688L20.9219 1.59375C21.0391 1.24219 20.8828 0.890625 20.5703 0.695312ZM15.4141 5.1875L8.10938 13.3516L4.04688 11.6328L15.4141 5.1875ZM9.39844 17.8438V15.9297L11.1953 16.7109L9.39844 17.8438ZM16.7812 16.9844L9.90625 14.0938L18.6562 4.36719L16.7812 16.9844Z" fill="white"/>
</svg>
