<svg width="20" height="20" viewBox="0 0 20 20" fill="none" xmlns="http://www.w3.org/2000/svg">
<path fill-rule="evenodd" clip-rule="evenodd" d="M4 11.875C5.103 11.875 6 10.978 6 9.875C6 8.772 5.103 7.875 4 7.875C2.897 7.875 2 8.772 2 9.875C2 10.978 2.897 11.875 4 11.875ZM16 18C17.103 18 18 17.103 18 16C18 14.897 17.103 14 16 14C13.357 14 13.356 18 16 18ZM16 6C17.103 6 18 5.103 18 4C18 2.897 17.103 2 16 2C13.357 2 13.356 6 16 6ZM4 5.875C5.221 5.875 6.3 6.4339 7.034 7.2959L12.041 4.40503C11.788 1.91903 13.731 0 16 0C18.209 0 20 1.791 20 4C20 6.209 18.209 8 16 8C14.653 8 13.468 7.32908 12.743 6.30908L7.92099 9.09302C8.02899 9.63702 8.02599 10.1611 7.91199 10.7041L12.859 13.551C13.591 12.613 14.719 12 16 12C18.209 12 20 13.791 20 16C20 18.209 18.209 20 16 20C13.638 20 11.676 17.9279 12.061 15.3989L7.005 12.49C6.27201 13.332 5.204 13.875 4 13.875C1.791 13.875 0 12.084 0 9.875C0 7.666 1.791 5.875 4 5.875Z" fill="#17C5A5"/>
</svg>
