<svg width="41" height="41" viewBox="0 0 41 41" fill="none" xmlns="http://www.w3.org/2000/svg">
<path d="M20.2154 3.44603C10.9756 3.44603 3.44629 10.9754 3.44629 20.2152C3.44629 29.455 10.9756 36.9843 20.2154 36.9843C29.4552 36.9843 36.9845 29.455 36.9845 20.2152C36.9845 10.9754 29.4552 3.44603 20.2154 3.44603ZM28.2311 16.3583L18.723 25.8664C18.4882 26.1011 18.1696 26.2353 17.8342 26.2353C17.4988 26.2353 17.1802 26.1011 16.9454 25.8664L12.1998 21.1207C11.7135 20.6344 11.7135 19.8295 12.1998 19.3432C12.6861 18.8569 13.491 18.8569 13.9773 19.3432L17.8342 23.2001L26.4535 14.5807C26.9398 14.0944 27.7448 14.0944 28.2311 14.5807C28.7174 15.067 28.7174 15.8552 28.2311 16.3583Z" fill="#17C5A5"/>
</svg>
