<svg width="21" height="22" viewBox="0 0 21 22" fill="none" xmlns="http://www.w3.org/2000/svg">
<path d="M10.4862 0.00017783C9.76917 0.015861 9.08092 0.195098 8.41115 0.489345L9.44907 2.44601C9.79135 2.32279 10.1418 2.23914 10.487 2.23616C11.6691 2.23616 12.9206 2.87319 13.8765 4.54234L17.819 11.4609L19.1334 9.29435L15.8134 3.42435C14.5463 1.21077 12.5355 -0.016999 10.487 0.00017783H10.4862ZM3.98446 5.66033L0.940929 11.0412C-0.21897 13.0688 -0.301028 15.3667 0.664446 17.1905C1.06438 17.9463 1.67132 18.5661 2.39357 19.0769L3.50025 17.1905C3.12914 16.894 2.81347 16.543 2.60131 16.1427C2.02394 15.0523 1.98698 13.596 2.80904 12.1592L6.54452 5.66033H3.98446ZM18.7867 15.1636C18.7142 15.5221 18.61 15.8328 18.4407 16.1427C17.8485 17.2241 16.6872 18.0292 14.8434 18.0292H7.30374L8.61814 20.2651H14.8434C17.3584 20.2651 19.3869 19.0695 20.3775 17.2607C20.7265 16.6221 20.9187 15.8985 21 15.1644H18.7867V15.1636ZM7.01616 8.49003L2.04243 5.59311L7.01616 2.6962V8.49003ZM15.1088 10.2861L20.0826 13.183V7.38847L15.1081 10.2854L15.1088 10.2861ZM4.73998 19.1023L9.71372 16.2054V22L4.73924 19.1031L4.73998 19.1023Z" fill="#434444"/>
</svg>
